# xmcd
#
# Track frame offsets:
#	182
#	18430
#	31250
#	46672
#	65765
#	84430
#	102165
#	118380
#	132470
#	149077
#
# Disc length: 2198 seconds
#
# Revision: 0
# Processed by: cddbd v1.5.2PL0 Copyright (c) Steve Scherf et al.
# Submitted via: EasyCDDAExtractor 16.0.9.1
#
DISCID=8e08940a
DTITLE=Pandora - Buenaventura
DYEAR=1988
DGENRE=Latin
TTITLE0=Hay Que Empezar Desde Abajo
TTITLE1=Sin Ti
TTITLE2=Atrapada
TTITLE3=Reflejos
TTITLE4=Amor Canalla
TTITLE5=No Puedo Dejar De Pensar En Ti
TTITLE6=Basta Enamorarse Nuevamente
TTITLE7=Flor De Verano
TTITLE8=Los Escalofrios No Mienten (Chills Never Lie)
TTITLE9=Buenaventura
EXTD=
EXTT0=
EXTT1=
EXTT2=
EXTT3=
EXTT4=
EXTT5=
EXTT6=
EXTT7=
EXTT8=
EXTT9=
PLAYORDER=
